<svg xmlns="http://www.w3.org/2000/svg" width="42" height="37.8" viewBox="0 0 42 37.8">
  <path id="ic_party_mode_24px" d="M39.8,6.2H33.143L29.3,2H16.7L12.857,6.2H6.2A4.212,4.212,0,0,0,2,10.4V35.6a4.212,4.212,0,0,0,4.2,4.2H39.8A4.212,4.212,0,0,0,44,35.6V10.4A4.212,4.212,0,0,0,39.8,6.2ZM23,12.5a10.47,10.47,0,0,1,8.358,4.2H23a6.258,6.258,0,0,0-5.922,8.4H12.71A11.483,11.483,0,0,1,12.5,23,10.5,10.5,0,0,1,23,12.5Zm0,21a10.47,10.47,0,0,1-8.358-4.2H23a6.258,6.258,0,0,0,5.922-8.4H33.29A9.9,9.9,0,0,1,33.5,23,10.5,10.5,0,0,1,23,33.5Z" transform="translate(-2 -2)" fill="rgba(84,81,81,0.1)"/>
</svg>
